<svg width="385" height="250" viewBox="0 0 385 250" fill="none" xmlns="http://www.w3.org/2000/svg">
<g clip-path="url(#clip0_14_366)">
<path d="M1.72853e-06 6.9229C0.38869 6.9229 0.703785 6.58433 0.703785 6.16666C0.703785 5.749 0.38869 5.4104 1.72853e-06 5.4104C-0.388687 5.4104 -0.703781 5.749 -0.703781 6.16666C-0.703781 6.58433 -0.388687 6.9229 1.72853e-06 6.9229Z" fill="#858585" fill-opacity="0.46"/>
<path d="M32.4167 6.9229C32.8054 6.9229 33.1204 6.58433 33.1204 6.16666C33.1204 5.749 32.8054 5.4104 32.4167 5.4104C32.028 5.4104 31.7129 5.749 31.7129 6.16666C31.7129 6.58433 32.028 6.9229 32.4167 6.9229Z" fill="#858585" fill-opacity="0.46"/>
<path d="M64.8333 6.9229C65.222 6.9229 65.5371 6.58433 65.5371 6.16666C65.5371 5.749 65.222 5.4104 64.8333 5.4104C64.4446 5.4104 64.1296 5.749 64.1296 6.16666C64.1296 6.58433 64.4446 6.9229 64.8333 6.9229Z" fill="#858585" fill-opacity="0.46"/>
<path d="M97.25 6.9229C97.6387 6.9229 97.9538 6.58433 97.9538 6.16666C97.9538 5.749 97.6387 5.4104 97.25 5.4104C96.8613 5.4104 96.5462 5.749 96.5462 6.16666C96.5462 6.58433 96.8613 6.9229 97.25 6.9229Z" fill="#858585" fill-opacity="0.46"/>
<path d="M129.667 6.9229C130.055 6.9229 130.37 6.58433 130.37 6.16666C130.37 5.749 130.055 5.4104 129.667 5.4104C129.278 5.4104 128.963 5.749 128.963 6.16666C128.963 6.58433 129.278 6.9229 129.667 6.9229Z" fill="#858585" fill-opacity="0.46"/>
<path d="M162.083 6.9229C162.472 6.9229 162.787 6.58433 162.787 6.16666C162.787 5.749 162.472 5.4104 162.083 5.4104C161.695 5.4104 161.38 5.749 161.38 6.16666C161.38 6.58433 161.695 6.9229 162.083 6.9229Z" fill="#858585" fill-opacity="0.46"/>
<path d="M194.5 6.9229C194.889 6.9229 195.204 6.58433 195.204 6.16666C195.204 5.749 194.889 5.4104 194.5 5.4104C194.111 5.4104 193.796 5.749 193.796 6.16666C193.796 6.58433 194.111 6.9229 194.5 6.9229Z" fill="#858585" fill-opacity="0.46"/>
<path d="M226.917 6.9229C227.305 6.9229 227.62 6.58433 227.62 6.16666C227.62 5.749 227.305 5.4104 226.917 5.4104C226.528 5.4104 226.213 5.749 226.213 6.16666C226.213 6.58433 226.528 6.9229 226.917 6.9229Z" fill="#858585" fill-opacity="0.46"/>
<path d="M259.333 6.9229C259.722 6.9229 260.037 6.58433 260.037 6.16666C260.037 5.749 259.722 5.4104 259.333 5.4104C258.945 5.4104 258.63 5.749 258.63 6.16666C258.63 6.58433 258.945 6.9229 259.333 6.9229Z" fill="#858585" fill-opacity="0.46"/>
<path d="M291.75 6.9229C292.139 6.9229 292.454 6.58433 292.454 6.16666C292.454 5.749 292.139 5.4104 291.75 5.4104C291.361 5.4104 291.046 5.749 291.046 6.16666C291.046 6.58433 291.361 6.9229 291.75 6.9229Z" fill="#858585" fill-opacity="0.46"/>
<path d="M324.167 6.9229C324.555 6.9229 324.87 6.58433 324.87 6.16666C324.87 5.749 324.555 5.4104 324.167 5.4104C323.778 5.4104 323.463 5.749 323.463 6.16666C323.463 6.58433 323.778 6.9229 324.167 6.9229Z" fill="#858585" fill-opacity="0.46"/>
<path d="M356.583 6.9229C356.972 6.9229 357.287 6.58433 357.287 6.16666C357.287 5.749 356.972 5.4104 356.583 5.4104C356.195 5.4104 355.88 5.749 355.88 6.16666C355.88 6.58433 356.195 6.9229 356.583 6.9229Z" fill="#858585" fill-opacity="0.46"/>
<path d="M1.72853e-06 41.7562C0.38869 41.7562 0.703785 41.4177 0.703785 41C0.703785 40.5823 0.38869 40.2437 1.72853e-06 40.2437C-0.388687 40.2437 -0.703781 40.5823 -0.703781 41C-0.703781 41.4177 -0.388687 41.7562 1.72853e-06 41.7562Z" fill="#858585" fill-opacity="0.46"/>
<path d="M32.4167 41.7562C32.8054 41.7562 33.1204 41.4177 33.1204 41C33.1204 40.5823 32.8054 40.2437 32.4167 40.2437C32.028 40.2437 31.7129 40.5823 31.7129 41C31.7129 41.4177 32.028 41.7562 32.4167 41.7562Z" fill="#858585" fill-opacity="0.46"/>
<path d="M64.8333 41.7562C65.222 41.7562 65.5371 41.4177 65.5371 41C65.5371 40.5823 65.222 40.2437 64.8333 40.2437C64.4446 40.2437 64.1296 40.5823 64.1296 41C64.1296 41.4177 64.4446 41.7562 64.8333 41.7562Z" fill="#858585" fill-opacity="0.46"/>
<path d="M97.25 41.7562C97.6387 41.7562 97.9538 41.4177 97.9538 41C97.9538 40.5823 97.6387 40.2437 97.25 40.2437C96.8613 40.2437 96.5462 40.5823 96.5462 41C96.5462 41.4177 96.8613 41.7562 97.25 41.7562Z" fill="#858585" fill-opacity="0.46"/>
<path d="M129.667 41.7562C130.055 41.7562 130.37 41.4177 130.37 41C130.37 40.5823 130.055 40.2437 129.667 40.2437C129.278 40.2437 128.963 40.5823 128.963 41C128.963 41.4177 129.278 41.7562 129.667 41.7562Z" fill="#858585" fill-opacity="0.46"/>
<path d="M162.083 41.7562C162.472 41.7562 162.787 41.4177 162.787 41C162.787 40.5823 162.472 40.2437 162.083 40.2437C161.695 40.2437 161.38 40.5823 161.38 41C161.38 41.4177 161.695 41.7562 162.083 41.7562Z" fill="#858585" fill-opacity="0.46"/>
<path d="M194.5 41.7562C194.889 41.7562 195.204 41.4177 195.204 41C195.204 40.5823 194.889 40.2437 194.5 40.2437C194.111 40.2437 193.796 40.5823 193.796 41C193.796 41.4177 194.111 41.7562 194.5 41.7562Z" fill="#858585" fill-opacity="0.46"/>
<path d="M226.917 41.7562C227.305 41.7562 227.62 41.4177 227.62 41C227.62 40.5823 227.305 40.2437 226.917 40.2437C226.528 40.2437 226.213 40.5823 226.213 41C226.213 41.4177 226.528 41.7562 226.917 41.7562Z" fill="#858585" fill-opacity="0.46"/>
<path d="M259.333 41.7562C259.722 41.7562 260.037 41.4177 260.037 41C260.037 40.5823 259.722 40.2437 259.333 40.2437C258.945 40.2437 258.63 40.5823 258.63 41C258.63 41.4177 258.945 41.7562 259.333 41.7562Z" fill="#858585" fill-opacity="0.46"/>
<path d="M291.75 41.7562C292.139 41.7562 292.454 41.4177 292.454 41C292.454 40.5823 292.139 40.2437 291.75 40.2437C291.361 40.2437 291.046 40.5823 291.046 41C291.046 41.4177 291.361 41.7562 291.75 41.7562Z" fill="#858585" fill-opacity="0.46"/>
<path d="M324.167 41.7562C324.555 41.7562 324.87 41.4177 324.87 41C324.87 40.5823 324.555 40.2437 324.167 40.2437C323.778 40.2437 323.463 40.5823 323.463 41C323.463 41.4177 323.778 41.7562 324.167 41.7562Z" fill="#858585" fill-opacity="0.46"/>
<path d="M356.583 41.7562C356.972 41.7562 357.287 41.4177 357.287 41C357.287 40.5823 356.972 40.2437 356.583 40.2437C356.195 40.2437 355.88 40.5823 355.88 41C355.88 41.4177 356.195 41.7562 356.583 41.7562Z" fill="#858585" fill-opacity="0.46"/>
<path d="M1.72853e-06 76.5896C0.38869 76.5896 0.703785 76.251 0.703785 75.8333C0.703785 75.4157 0.38869 75.0771 1.72853e-06 75.0771C-0.388687 75.0771 -0.703781 75.4157 -0.703781 75.8333C-0.703781 76.251 -0.388687 76.5896 1.72853e-06 76.5896Z" fill="#858585" fill-opacity="0.46"/>
<path d="M32.4167 76.5896C32.8054 76.5896 33.1204 76.251 33.1204 75.8333C33.1204 75.4157 32.8054 75.0771 32.4167 75.0771C32.028 75.0771 31.7129 75.4157 31.7129 75.8333C31.7129 76.251 32.028 76.5896 32.4167 76.5896Z" fill="#858585" fill-opacity="0.46"/>
<path d="M64.8333 76.5896C65.222 76.5896 65.5371 76.251 65.5371 75.8333C65.5371 75.4157 65.222 75.0771 64.8333 75.0771C64.4446 75.0771 64.1296 75.4157 64.1296 75.8333C64.1296 76.251 64.4446 76.5896 64.8333 76.5896Z" fill="#858585" fill-opacity="0.46"/>
<path d="M97.25 76.5896C97.6387 76.5896 97.9538 76.251 97.9538 75.8333C97.9538 75.4157 97.6387 75.0771 97.25 75.0771C96.8613 75.0771 96.5462 75.4157 96.5462 75.8333C96.5462 76.251 96.8613 76.5896 97.25 76.5896Z" fill="#858585" fill-opacity="0.46"/>
<path d="M129.667 76.5896C130.055 76.5896 130.37 76.251 130.37 75.8333C130.37 75.4157 130.055 75.0771 129.667 75.0771C129.278 75.0771 128.963 75.4157 128.963 75.8333C128.963 76.251 129.278 76.5896 129.667 76.5896Z" fill="#858585" fill-opacity="0.46"/>
<path d="M162.083 76.5896C162.472 76.5896 162.787 76.251 162.787 75.8333C162.787 75.4157 162.472 75.0771 162.083 75.0771C161.695 75.0771 161.38 75.4157 161.38 75.8333C161.38 76.251 161.695 76.5896 162.083 76.5896Z" fill="#858585" fill-opacity="0.46"/>
<path d="M194.5 76.5896C194.889 76.5896 195.204 76.251 195.204 75.8333C195.204 75.4157 194.889 75.0771 194.5 75.0771C194.111 75.0771 193.796 75.4157 193.796 75.8333C193.796 76.251 194.111 76.5896 194.5 76.5896Z" fill="#858585" fill-opacity="0.46"/>
<path d="M226.917 76.5896C227.305 76.5896 227.62 76.251 227.62 75.8333C227.62 75.4157 227.305 75.0771 226.917 75.0771C226.528 75.0771 226.213 75.4157 226.213 75.8333C226.213 76.251 226.528 76.5896 226.917 76.5896Z" fill="#858585" fill-opacity="0.46"/>
<path d="M259.333 76.5896C259.722 76.5896 260.037 76.251 260.037 75.8333C260.037 75.4157 259.722 75.0771 259.333 75.0771C258.945 75.0771 258.63 75.4157 258.63 75.8333C258.63 76.251 258.945 76.5896 259.333 76.5896Z" fill="#858585" fill-opacity="0.46"/>
<path d="M291.75 76.5896C292.139 76.5896 292.454 76.251 292.454 75.8333C292.454 75.4157 292.139 75.0771 291.75 75.0771C291.361 75.0771 291.046 75.4157 291.046 75.8333C291.046 76.251 291.361 76.5896 291.75 76.5896Z" fill="#858585" fill-opacity="0.46"/>
<path d="M324.167 76.5896C324.555 76.5896 324.87 76.251 324.87 75.8333C324.87 75.4157 324.555 75.0771 324.167 75.0771C323.778 75.0771 323.463 75.4157 323.463 75.8333C323.463 76.251 323.778 76.5896 324.167 76.5896Z" fill="#858585" fill-opacity="0.46"/>
<path d="M356.583 76.5896C356.972 76.5896 357.287 76.251 357.287 75.8333C357.287 75.4157 356.972 75.0771 356.583 75.0771C356.195 75.0771 355.88 75.4157 355.88 75.8333C355.88 76.251 356.195 76.5896 356.583 76.5896Z" fill="#858585" fill-opacity="0.46"/>
<path d="M1.72853e-06 111.423C0.38869 111.423 0.703785 111.084 0.703785 110.667C0.703785 110.249 0.38869 109.91 1.72853e-06 109.91C-0.388687 109.91 -0.703781 110.249 -0.703781 110.667C-0.703781 111.084 -0.388687 111.423 1.72853e-06 111.423Z" fill="#858585" fill-opacity="0.46"/>
<path d="M32.4167 111.423C32.8054 111.423 33.1204 111.084 33.1204 110.667C33.1204 110.249 32.8054 109.91 32.4167 109.91C32.028 109.91 31.7129 110.249 31.7129 110.667C31.7129 111.084 32.028 111.423 32.4167 111.423Z" fill="#858585" fill-opacity="0.46"/>
<path d="M64.8333 111.423C65.222 111.423 65.5371 111.084 65.5371 110.667C65.5371 110.249 65.222 109.91 64.8333 109.91C64.4446 109.91 64.1296 110.249 64.1296 110.667C64.1296 111.084 64.4446 111.423 64.8333 111.423Z" fill="#858585" fill-opacity="0.46"/>
<path d="M97.25 111.423C97.6387 111.423 97.9538 111.084 97.9538 110.667C97.9538 110.249 97.6387 109.91 97.25 109.91C96.8613 109.91 96.5462 110.249 96.5462 110.667C96.5462 111.084 96.8613 111.423 97.25 111.423Z" fill="#858585" fill-opacity="0.46"/>
<path d="M129.667 111.423C130.055 111.423 130.37 111.084 130.37 110.667C130.37 110.249 130.055 109.91 129.667 109.91C129.278 109.91 128.963 110.249 128.963 110.667C128.963 111.084 129.278 111.423 129.667 111.423Z" fill="#858585" fill-opacity="0.46"/>
<path d="M162.083 111.423C162.472 111.423 162.787 111.084 162.787 110.667C162.787 110.249 162.472 109.91 162.083 109.91C161.695 109.91 161.38 110.249 161.38 110.667C161.38 111.084 161.695 111.423 162.083 111.423Z" fill="#858585" fill-opacity="0.46"/>
<path d="M194.5 111.423C194.889 111.423 195.204 111.084 195.204 110.667C195.204 110.249 194.889 109.91 194.5 109.91C194.111 109.91 193.796 110.249 193.796 110.667C193.796 111.084 194.111 111.423 194.5 111.423Z" fill="#858585" fill-opacity="0.46"/>
<path d="M226.917 111.423C227.305 111.423 227.62 111.084 227.62 110.667C227.62 110.249 227.305 109.91 226.917 109.91C226.528 109.91 226.213 110.249 226.213 110.667C226.213 111.084 226.528 111.423 226.917 111.423Z" fill="#858585" fill-opacity="0.46"/>
<path d="M259.333 111.423C259.722 111.423 260.037 111.084 260.037 110.667C260.037 110.249 259.722 109.91 259.333 109.91C258.945 109.91 258.63 110.249 258.63 110.667C258.63 111.084 258.945 111.423 259.333 111.423Z" fill="#858585" fill-opacity="0.46"/>
<path d="M291.75 111.423C292.139 111.423 292.454 111.084 292.454 110.667C292.454 110.249 292.139 109.91 291.75 109.91C291.361 109.91 291.046 110.249 291.046 110.667C291.046 111.084 291.361 111.423 291.75 111.423Z" fill="#858585" fill-opacity="0.46"/>
<path d="M324.167 111.423C324.555 111.423 324.87 111.084 324.87 110.667C324.87 110.249 324.555 109.91 324.167 109.91C323.778 109.91 323.463 110.249 323.463 110.667C323.463 111.084 323.778 111.423 324.167 111.423Z" fill="#858585" fill-opacity="0.46"/>
<path d="M356.583 111.423C356.972 111.423 357.287 111.084 357.287 110.667C357.287 110.249 356.972 109.91 356.583 109.91C356.195 109.91 355.88 110.249 355.88 110.667C355.88 111.084 356.195 111.423 356.583 111.423Z" fill="#858585" fill-opacity="0.46"/>
<path d="M1.72853e-06 146.256C0.38869 146.256 0.703785 145.918 0.703785 145.5C0.703785 145.082 0.38869 144.744 1.72853e-06 144.744C-0.388687 144.744 -0.703781 145.082 -0.703781 145.5C-0.703781 145.918 -0.388687 146.256 1.72853e-06 146.256Z" fill="#858585" fill-opacity="0.46"/>
<path d="M32.4167 146.256C32.8054 146.256 33.1204 145.918 33.1204 145.5C33.1204 145.082 32.8054 144.744 32.4167 144.744C32.028 144.744 31.7129 145.082 31.7129 145.5C31.7129 145.918 32.028 146.256 32.4167 146.256Z" fill="#858585" fill-opacity="0.46"/>
<path d="M64.8333 146.256C65.222 146.256 65.5371 145.918 65.5371 145.5C65.5371 145.082 65.222 144.744 64.8333 144.744C64.4446 144.744 64.1296 145.082 64.1296 145.5C64.1296 145.918 64.4446 146.256 64.8333 146.256Z" fill="#858585" fill-opacity="0.46"/>
<path d="M97.25 146.256C97.6387 146.256 97.9538 145.918 97.9538 145.5C97.9538 145.082 97.6387 144.744 97.25 144.744C96.8613 144.744 96.5462 145.082 96.5462 145.5C96.5462 145.918 96.8613 146.256 97.25 146.256Z" fill="#858585" fill-opacity="0.46"/>
<path d="M129.667 146.256C130.055 146.256 130.37 145.918 130.37 145.5C130.37 145.082 130.055 144.744 129.667 144.744C129.278 144.744 128.963 145.082 128.963 145.5C128.963 145.918 129.278 146.256 129.667 146.256Z" fill="#858585" fill-opacity="0.46"/>
<path d="M162.083 146.256C162.472 146.256 162.787 145.918 162.787 145.5C162.787 145.082 162.472 144.744 162.083 144.744C161.695 144.744 161.38 145.082 161.38 145.5C161.38 145.918 161.695 146.256 162.083 146.256Z" fill="#858585" fill-opacity="0.46"/>
<path d="M194.5 146.256C194.889 146.256 195.204 145.918 195.204 145.5C195.204 145.082 194.889 144.744 194.5 144.744C194.111 144.744 193.796 145.082 193.796 145.5C193.796 145.918 194.111 146.256 194.5 146.256Z" fill="#858585" fill-opacity="0.46"/>
<path d="M226.917 146.256C227.305 146.256 227.62 145.918 227.62 145.5C227.62 145.082 227.305 144.744 226.917 144.744C226.528 144.744 226.213 145.082 226.213 145.5C226.213 145.918 226.528 146.256 226.917 146.256Z" fill="#858585" fill-opacity="0.46"/>
<path d="M259.333 146.256C259.722 146.256 260.037 145.918 260.037 145.5C260.037 145.082 259.722 144.744 259.333 144.744C258.945 144.744 258.63 145.082 258.63 145.5C258.63 145.918 258.945 146.256 259.333 146.256Z" fill="#858585" fill-opacity="0.46"/>
<path d="M291.75 146.256C292.139 146.256 292.454 145.918 292.454 145.5C292.454 145.082 292.139 144.744 291.75 144.744C291.361 144.744 291.046 145.082 291.046 145.5C291.046 145.918 291.361 146.256 291.75 146.256Z" fill="#858585" fill-opacity="0.46"/>
<path d="M324.167 146.256C324.555 146.256 324.87 145.918 324.87 145.5C324.87 145.082 324.555 144.744 324.167 144.744C323.778 144.744 323.463 145.082 323.463 145.5C323.463 145.918 323.778 146.256 324.167 146.256Z" fill="#858585" fill-opacity="0.46"/>
<path d="M356.583 146.256C356.972 146.256 357.287 145.918 357.287 145.5C357.287 145.082 356.972 144.744 356.583 144.744C356.195 144.744 355.88 145.082 355.88 145.5C355.88 145.918 356.195 146.256 356.583 146.256Z" fill="#858585" fill-opacity="0.46"/>
<path d="M1.72853e-06 181.09C0.38869 181.09 0.703785 180.751 0.703785 180.333C0.703785 179.916 0.38869 179.577 1.72853e-06 179.577C-0.388687 179.577 -0.703781 179.916 -0.703781 180.333C-0.703781 180.751 -0.388687 181.09 1.72853e-06 181.09Z" fill="#858585" fill-opacity="0.46"/>
<path d="M32.4167 181.09C32.8054 181.09 33.1204 180.751 33.1204 180.333C33.1204 179.916 32.8054 179.577 32.4167 179.577C32.028 179.577 31.7129 179.916 31.7129 180.333C31.7129 180.751 32.028 181.09 32.4167 181.09Z" fill="#858585" fill-opacity="0.46"/>
<path d="M64.8333 181.09C65.222 181.09 65.5371 180.751 65.5371 180.333C65.5371 179.916 65.222 179.577 64.8333 179.577C64.4446 179.577 64.1296 179.916 64.1296 180.333C64.1296 180.751 64.4446 181.09 64.8333 181.09Z" fill="#858585" fill-opacity="0.46"/>
<path d="M97.25 181.09C97.6387 181.09 97.9538 180.751 97.9538 180.333C97.9538 179.916 97.6387 179.577 97.25 179.577C96.8613 179.577 96.5462 179.916 96.5462 180.333C96.5462 180.751 96.8613 181.09 97.25 181.09Z" fill="#858585" fill-opacity="0.46"/>
<path d="M129.667 181.09C130.055 181.09 130.37 180.751 130.37 180.333C130.37 179.916 130.055 179.577 129.667 179.577C129.278 179.577 128.963 179.916 128.963 180.333C128.963 180.751 129.278 181.09 129.667 181.09Z" fill="#858585" fill-opacity="0.46"/>
<path d="M162.083 181.09C162.472 181.09 162.787 180.751 162.787 180.333C162.787 179.916 162.472 179.577 162.083 179.577C161.695 179.577 161.38 179.916 161.38 180.333C161.38 180.751 161.695 181.09 162.083 181.09Z" fill="#858585" fill-opacity="0.46"/>
<path d="M194.5 181.09C194.889 181.09 195.204 180.751 195.204 180.333C195.204 179.916 194.889 179.577 194.5 179.577C194.111 179.577 193.796 179.916 193.796 180.333C193.796 180.751 194.111 181.09 194.5 181.09Z" fill="#858585" fill-opacity="0.46"/>
<path d="M226.917 181.09C227.305 181.09 227.62 180.751 227.62 180.333C227.62 179.916 227.305 179.577 226.917 179.577C226.528 179.577 226.213 179.916 226.213 180.333C226.213 180.751 226.528 181.09 226.917 181.09Z" fill="#858585" fill-opacity="0.46"/>
<path d="M259.333 181.09C259.722 181.09 260.037 180.751 260.037 180.333C260.037 179.916 259.722 179.577 259.333 179.577C258.945 179.577 258.63 179.916 258.63 180.333C258.63 180.751 258.945 181.09 259.333 181.09Z" fill="#858585" fill-opacity="0.46"/>
<path d="M291.75 181.09C292.139 181.09 292.454 180.751 292.454 180.333C292.454 179.916 292.139 179.577 291.75 179.577C291.361 179.577 291.046 179.916 291.046 180.333C291.046 180.751 291.361 181.09 291.75 181.09Z" fill="#858585" fill-opacity="0.46"/>
<path d="M324.167 181.09C324.555 181.09 324.87 180.751 324.87 180.333C324.87 179.916 324.555 179.577 324.167 179.577C323.778 179.577 323.463 179.916 323.463 180.333C323.463 180.751 323.778 181.09 324.167 181.09Z" fill="#858585" fill-opacity="0.46"/>
<path d="M356.583 181.09C356.972 181.09 357.287 180.751 357.287 180.333C357.287 179.916 356.972 179.577 356.583 179.577C356.195 179.577 355.88 179.916 355.88 180.333C355.88 180.751 356.195 181.09 356.583 181.09Z" fill="#858585" fill-opacity="0.46"/>
<path d="M1.72853e-06 215.923C0.38869 215.923 0.703785 215.584 0.703785 215.167C0.703785 214.749 0.38869 214.41 1.72853e-06 214.41C-0.388687 214.41 -0.703781 214.749 -0.703781 215.167C-0.703781 215.584 -0.388687 215.923 1.72853e-06 215.923Z" fill="#858585" fill-opacity="0.46"/>
<path d="M32.4167 215.923C32.8054 215.923 33.1204 215.584 33.1204 215.167C33.1204 214.749 32.8054 214.41 32.4167 214.41C32.028 214.41 31.7129 214.749 31.7129 215.167C31.7129 215.584 32.028 215.923 32.4167 215.923Z" fill="#858585" fill-opacity="0.46"/>
<path d="M64.8333 215.923C65.222 215.923 65.5371 215.584 65.5371 215.167C65.5371 214.749 65.222 214.41 64.8333 214.41C64.4446 214.41 64.1296 214.749 64.1296 215.167C64.1296 215.584 64.4446 215.923 64.8333 215.923Z" fill="#858585" fill-opacity="0.46"/>
<path d="M97.25 215.923C97.6387 215.923 97.9538 215.584 97.9538 215.167C97.9538 214.749 97.6387 214.41 97.25 214.41C96.8613 214.41 96.5462 214.749 96.5462 215.167C96.5462 215.584 96.8613 215.923 97.25 215.923Z" fill="#858585" fill-opacity="0.46"/>
<path d="M129.667 215.923C130.055 215.923 130.37 215.584 130.37 215.167C130.37 214.749 130.055 214.41 129.667 214.41C129.278 214.41 128.963 214.749 128.963 215.167C128.963 215.584 129.278 215.923 129.667 215.923Z" fill="#858585" fill-opacity="0.46"/>
<path d="M162.083 215.923C162.472 215.923 162.787 215.584 162.787 215.167C162.787 214.749 162.472 214.41 162.083 214.41C161.695 214.41 161.38 214.749 161.38 215.167C161.38 215.584 161.695 215.923 162.083 215.923Z" fill="#858585" fill-opacity="0.46"/>
<path d="M194.5 215.923C194.889 215.923 195.204 215.584 195.204 215.167C195.204 214.749 194.889 214.41 194.5 214.41C194.111 214.41 193.796 214.749 193.796 215.167C193.796 215.584 194.111 215.923 194.5 215.923Z" fill="#858585" fill-opacity="0.46"/>
<path d="M226.917 215.923C227.305 215.923 227.62 215.584 227.62 215.167C227.62 214.749 227.305 214.41 226.917 214.41C226.528 214.41 226.213 214.749 226.213 215.167C226.213 215.584 226.528 215.923 226.917 215.923Z" fill="#858585" fill-opacity="0.46"/>
<path d="M259.333 215.923C259.722 215.923 260.037 215.584 260.037 215.167C260.037 214.749 259.722 214.41 259.333 214.41C258.945 214.41 258.63 214.749 258.63 215.167C258.63 215.584 258.945 215.923 259.333 215.923Z" fill="#858585" fill-opacity="0.46"/>
<path d="M291.75 215.923C292.139 215.923 292.454 215.584 292.454 215.167C292.454 214.749 292.139 214.41 291.75 214.41C291.361 214.41 291.046 214.749 291.046 215.167C291.046 215.584 291.361 215.923 291.75 215.923Z" fill="#858585" fill-opacity="0.46"/>
<path d="M324.167 215.923C324.555 215.923 324.87 215.584 324.87 215.167C324.87 214.749 324.555 214.41 324.167 214.41C323.778 214.41 323.463 214.749 323.463 215.167C323.463 215.584 323.778 215.923 324.167 215.923Z" fill="#858585" fill-opacity="0.46"/>
<path d="M356.583 215.923C356.972 215.923 357.287 215.584 357.287 215.167C357.287 214.749 356.972 214.41 356.583 214.41C356.195 214.41 355.88 214.749 355.88 215.167C355.88 215.584 356.195 215.923 356.583 215.923Z" fill="#858585" fill-opacity="0.46"/>
<path d="M1.72853e-06 250.756C0.38869 250.756 0.703785 250.418 0.703785 250C0.703785 249.582 0.38869 249.244 1.72853e-06 249.244C-0.388687 249.244 -0.703781 249.582 -0.703781 250C-0.703781 250.418 -0.388687 250.756 1.72853e-06 250.756Z" fill="#858585" fill-opacity="0.46"/>
<path d="M32.4167 250.756C32.8054 250.756 33.1204 250.418 33.1204 250C33.1204 249.582 32.8054 249.244 32.4167 249.244C32.028 249.244 31.7129 249.582 31.7129 250C31.7129 250.418 32.028 250.756 32.4167 250.756Z" fill="#858585" fill-opacity="0.46"/>
<path d="M64.8333 250.756C65.222 250.756 65.5371 250.418 65.5371 250C65.5371 249.582 65.222 249.244 64.8333 249.244C64.4446 249.244 64.1296 249.582 64.1296 250C64.1296 250.418 64.4446 250.756 64.8333 250.756Z" fill="#858585" fill-opacity="0.46"/>
<path d="M97.25 250.756C97.6387 250.756 97.9538 250.418 97.9538 250C97.9538 249.582 97.6387 249.244 97.25 249.244C96.8613 249.244 96.5462 249.582 96.5462 250C96.5462 250.418 96.8613 250.756 97.25 250.756Z" fill="#858585" fill-opacity="0.46"/>
<path d="M129.667 250.756C130.055 250.756 130.37 250.418 130.37 250C130.37 249.582 130.055 249.244 129.667 249.244C129.278 249.244 128.963 249.582 128.963 250C128.963 250.418 129.278 250.756 129.667 250.756Z" fill="#858585" fill-opacity="0.46"/>
<path d="M162.083 250.756C162.472 250.756 162.787 250.418 162.787 250C162.787 249.582 162.472 249.244 162.083 249.244C161.695 249.244 161.38 249.582 161.38 250C161.38 250.418 161.695 250.756 162.083 250.756Z" fill="#858585" fill-opacity="0.46"/>
<path d="M194.5 250.756C194.889 250.756 195.204 250.418 195.204 250C195.204 249.582 194.889 249.244 194.5 249.244C194.111 249.244 193.796 249.582 193.796 250C193.796 250.418 194.111 250.756 194.5 250.756Z" fill="#858585" fill-opacity="0.46"/>
<path d="M226.917 250.756C227.305 250.756 227.62 250.418 227.62 250C227.62 249.582 227.305 249.244 226.917 249.244C226.528 249.244 226.213 249.582 226.213 250C226.213 250.418 226.528 250.756 226.917 250.756Z" fill="#858585" fill-opacity="0.46"/>
<path d="M259.333 250.756C259.722 250.756 260.037 250.418 260.037 250C260.037 249.582 259.722 249.244 259.333 249.244C258.945 249.244 258.63 249.582 258.63 250C258.63 250.418 258.945 250.756 259.333 250.756Z" fill="#858585" fill-opacity="0.46"/>
<path d="M291.75 250.756C292.139 250.756 292.454 250.418 292.454 250C292.454 249.582 292.139 249.244 291.75 249.244C291.361 249.244 291.046 249.582 291.046 250C291.046 250.418 291.361 250.756 291.75 250.756Z" fill="#858585" fill-opacity="0.46"/>
<path d="M324.167 250.756C324.555 250.756 324.87 250.418 324.87 250C324.87 249.582 324.555 249.244 324.167 249.244C323.778 249.244 323.463 249.582 323.463 250C323.463 250.418 323.778 250.756 324.167 250.756Z" fill="#858585" fill-opacity="0.46"/>
<path d="M356.583 250.756C356.972 250.756 357.287 250.418 357.287 250C357.287 249.582 356.972 249.244 356.583 249.244C356.195 249.244 355.88 249.582 355.88 250C355.88 250.418 356.195 250.756 356.583 250.756Z" fill="#858585" fill-opacity="0.46"/>
</g>
<defs>
<clipPath id="clip0_14_366">
<rect width="389" height="418" fill="white" transform="translate(0 -168)"/>
</clipPath>
</defs>
</svg>
