<svg width="8" height="8" viewBox="0 0 8 8" fill="none" xmlns="http://www.w3.org/2000/svg">
<g clip-path="url(#clip0_19_1215)">
<path fill-rule="evenodd" clip-rule="evenodd" d="M0.953124 3.76471C1.06795 2.26588 2.26607 1.06823 3.76489 0.952942V1.88235H4.23547V0.952937C5.7343 1.06823 6.93195 2.26588 7.04677 3.7647H6.11783V4.2353H7.04677C6.93195 5.73412 5.7343 6.93177 4.23548 7.04706V6.11765H3.76489V7.04706C2.26607 6.93177 1.06795 5.73412 0.953124 4.2353H1.88254V3.7647H0.953124V3.76471ZM0.482537 4.23529C0.599245 5.99341 2.0063 7.40094 3.76489 7.51765V8H4.23547V7.51765C5.9936 7.40094 7.40065 5.99341 7.51736 4.2353H8.00018V3.7647H7.51736C7.40065 2.00659 5.9936 0.599058 4.23548 0.482354V-4.17233e-07H3.76489V0.482354C2.0063 0.599062 0.599241 2.00659 0.482537 3.7647H0.000182688V4.2353H0.482537V4.23529ZM4 2.82353C4.64847 2.82353 5.17647 3.35153 5.17647 4C5.17647 4.64847 4.64847 5.17647 4 5.17647C3.35152 5.17647 2.82352 4.64847 2.82352 4C2.82352 3.35153 3.35152 2.82353 4 2.82353ZM4 5.64706C4.90823 5.64706 5.64705 4.90823 5.64705 4C5.64705 3.09177 4.90823 2.35294 4 2.35294C3.09176 2.35294 2.35294 3.09177 2.35294 4C2.35294 4.90823 3.09176 5.64706 4 5.64706Z" fill="#E76F51"/>
</g>
<defs>
<clipPath id="clip0_19_1215">
<rect width="8" height="8" fill="white" transform="matrix(-1 0 0 -1 8 8)"/>
</clipPath>
</defs>
</svg>
